# File created by Blade
# Date/Time:  Thu Jan 22 18:06:37 2015
#---------------------------------------------------------
:version 1.10
:name HOM
:units
  mass 1.0
  length 1.000000
  angle deg
:documentation
     Acclaim Skeleton File
:root
   axis xyz
   order TX TY TZ RX RY RZ
   position 0.000000 0.000000 0.000000
   orientation 0 0 0
:bonedata
   begin
      id 1
      name RightUpLeg_dum
      direction -1.000000 0.000000 0.000000
      length 4.478084
      axis 0.0 0.0 0.0 xyz
   end
   begin
      id 2
      name LeftUpLeg_dum
      direction 1.000000 0.000000 0.000000
      length 4.478084
      axis 0.0 0.0 0.0 xyz
   end
   begin
      id 3
      name Spine_dum
      direction 0.000000 1.000000 0.000000
      length 6.068208
      axis 0.0 0.0 0.0 xyz
   end
   begin
      id 4
      name RightUpLeg
      direction 0.000000 -1.000000 0.000000
      length 16.405774
      axis 0.0 0.0 0.0 xyz
      dof rx ry rz
   end
   begin
      id 5
      name RightLeg
      direction 0.000000 -1.000000 0.000000
      length 14.644143
      axis 0.0 0.0 0.0 xyz
      dof rx ry rz
   end
   begin
      id 6
      name RightFoot
      direction 0.000000 -0.258819 0.965926
      length 5.806150
      axis 15.0 0.0 0.0 xyz
      dof rx ry rz
   end
   begin
      id 7
      name RightToeBase
      direction 0.000000 0.000000 1.000000
      length 2.952750
      axis 0.0 0.0 0.0 xyz
      dof rx ry rz
   end
   begin
      id 8
      name LeftUpLeg
      direction 0.000000 -1.000000 0.000000
      length 16.405774
      axis 0.0 0.0 0.0 xyz
      dof rx ry rz
   end
   begin
      id 9
      name LeftLeg
      direction 0.000000 -1.000000 0.000000
      length 14.644143
      axis 0.0 0.0 0.0 xyz
      dof rx ry rz
   end
   begin
      id 10
      name LeftFoot
      direction 0.000000 -0.258819 0.965926
      length 5.806150
      axis 15.0 0.0 0.0 xyz
      dof rx ry rz
   end
   begin
      id 11
      name LeftToeBase
      direction 0.000000 0.000000 1.000000
      length 2.952750
      axis 0.0 0.0 0.0 xyz
      dof rx ry rz
   end
   begin
      id 12
      name Spine
      direction 0.000000 1.000000 0.000000
      length 0.000000
      axis 0.0 0.0 0.0 xyz
      dof rx ry rz
   end
   begin
      id 13
      name Spine_dum1
      direction 0.000000 1.000000 0.000000
      length 10.013923
      axis 0.0 0.0 0.0 xyz
   end
   begin
      id 14
      name Spine_dum2
      direction 0.000000 1.000000 0.000000
      length 10.013923
      axis 0.0 0.0 0.0 xyz
   end
   begin
      id 15
      name Spine_dum3
      direction 0.000000 1.000000 0.000000
      length 15.777476
      axis 0.0 0.0 0.0 xyz
   end
   begin
      id 16
      name RightShoulder
      direction -1.000000 0.000000 0.000000
      length 7.190220
      axis 0.0 0.0 90.0 xyz
      dof rx ry rz
   end
   begin
      id 17
      name RightArm
      direction -1.000000 0.000000 0.000000
      length 10.177469
      axis 0.0 0.0 90.0 xyz
      dof rx ry rz
   end
   begin
      id 18
      name RightForeArm
      direction -1.000000 0.000000 0.000000
      length 8.392114
      axis 0.0 0.0 90.0 xyz
      dof ry rz rx
   end
   begin
      id 19
      name RightHand
      direction -1.000000 0.000000 0.000000
      length 0.000000
      axis 0.0 0.0 90.0 xyz
      dof rx ry rz
   end
   begin
      id 20
      name RightHand_dum1
      direction -1.000000 0.000000 0.000000
      length 3.937000
      axis 0.0 0.0 90.0 xyz
   end
   begin
      id 21
      name RightHand_dum2
      direction 0.000000 0.000000 0.000000
      length 0.000000
      axis 0.0 0.0 90.0 xyz
   end
   begin
      id 22
      name RightHandThumb1
      direction 0.000000 0.000000 1.000000
      length 3.937000
      axis 0.0 0.0 90.0 xyz
      dof rx rz ry
   end
   begin
      id 23
      name LeftShoulder
      direction 1.000000 0.000000 0.000000
      length 7.190220
      axis 0.0 0.0 -90.0 xyz
      dof rx ry rz
   end
   begin
      id 24
      name LeftArm
      direction 1.000000 0.000000 0.000000
      length 10.177469
      axis 0.0 0.0 -90.0 xyz
      dof rx ry rz
   end
   begin
      id 25
      name LeftForeArm
      direction 1.000000 0.000000 0.000000
      length 8.392114
      axis 0.0 0.0 -90.0 xyz
      dof ry rz rx
   end
   begin
      id 26
      name LeftHand
      direction 1.000000 0.000000 0.000000
      length 0.000000
      axis 0.0 0.0 -90.0 xyz
      dof rx ry rz
   end
   begin
      id 27
      name LeftHand_dum1
      direction 1.000000 0.000000 0.000000
      length 3.937000
      axis 0.0 0.0 -90.0 xyz
   end
   begin
      id 28
      name LeftHand_dum2
      direction 0.000000 0.000000 0.000000
      length 0.000000
      axis 0.0 0.0 -90.0 xyz
   end
   begin
      id 29
      name LeftHandThumb1
      direction 0.000000 0.000000 1.000000
      length 3.937000
      axis 0.0 0.0 -90.0 xyz
      dof rx rz ry
   end
   begin
      id 30
      name Head
      direction 0.000000 1.000000 0.000000
      length 4.527550
      axis 0.0 0.0 0.0 xyz
      dof rx ry rz
   end
:hierarchy
   begin
      root RightUpLeg_dum LeftUpLeg_dum Spine_dum
      RightUpLeg_dum RightUpLeg
      LeftUpLeg_dum LeftUpLeg
      Spine_dum Spine
      RightUpLeg RightLeg
      RightLeg RightFoot
      RightFoot RightToeBase
      LeftUpLeg LeftLeg
      LeftLeg LeftFoot
      LeftFoot LeftToeBase
      Spine Spine_dum1 Spine_dum2 Spine_dum3
      Spine_dum1 RightShoulder
      Spine_dum2 LeftShoulder
      Spine_dum3 Head
      RightShoulder RightArm
      RightArm RightForeArm
      RightForeArm RightHand
      RightHand RightHand_dum1 RightHand_dum2
      RightHand_dum2 RightHandThumb1
      LeftShoulder LeftArm
      LeftArm LeftForeArm
      LeftForeArm LeftHand
      LeftHand LeftHand_dum1 LeftHand_dum2
      LeftHand_dum2 LeftHandThumb1
   end

# File created by Blade
# Date/Time:  Thu Jan 22 18:06:27 2015
# Frame Rate: 120.000 fps
#------------------------------------------------------
:FULLY-SPECIFIED
:DEGREES
1280
root 0.826534 32.825032 -2.166653 8.780076 21.961494 4.696973
RightUpLeg -25.484933 13.552089 -2.098879
RightLeg 90.867382 -0.000000 -0.000000
RightFoot 1.203551 14.277866 10.024832
RightToeBase -4.883344 -0.000000 0.000000
LeftUpLeg -0.965991 -13.381652 -10.433763
LeftLeg -0.532669 -0.000000 0.000000
LeftFoot -6.189474 -8.169313 -3.689405
LeftToeBase 9.590480 -0.000000 -0.000000
Spine -9.706647 -7.935574 -2.863495
RightShoulder -19.304172 -20.556042 -22.181311
RightArm 15.027993 27.880992 52.067392
RightForeArm -7.888420 -0.000000 15.097956
RightHand 7.468286 -0.000000 9.594304
RightHandThumb1 -24.326973 -0.000000 -32.862282
LeftShoulder -19.957542 1.239677 24.686345
LeftArm 36.865497 -17.085303 -60.583514
LeftForeArm 3.881424 -0.000000 46.538918
LeftHand 0.664886 -0.000000 33.901188
LeftHandThumb1 -26.253704 0.000000 33.147579
Head 18.523644 1.979550 -2.544177
1281
root 0.831128 32.827207 -2.175860 8.833588 22.130012 4.696400
RightUpLeg -25.704945 14.925332 -2.804203
RightLeg 90.852864 -0.000000 -0.000000
RightFoot 1.331420 13.847907 9.690084
RightToeBase -5.776622 -0.000000 0.000000
LeftUpLeg -1.029795 -13.478678 -10.406430
LeftLeg -0.523603 -0.000000 0.000000
LeftFoot -6.155084 -8.270360 -3.698709
LeftToeBase 9.763973 -0.000000 -0.000000
Spine -9.749749 -8.037822 -2.819376
RightShoulder -19.361831 -20.484699 -22.166600
RightArm 14.863327 27.820857 51.953430
RightForeArm -7.808096 -0.000000 15.025910
RightHand 7.457846 -0.000000 9.485335
RightHandThumb1 -24.326973 -0.000000 -32.862282
LeftShoulder -19.902542 1.179758 24.711915
LeftArm 36.869509 -17.014502 -60.652446
LeftForeArm 3.887717 -0.000000 46.541628
LeftHand 0.640737 -0.000000 33.976176
LeftHandThumb1 -26.253704 0.000000 33.147579
Head 18.541960 1.818719 -2.546637
1282
root 0.834932 32.829320 -2.183587 8.871147 22.324796 4.691702
RightUpLeg -25.946247 16.356969 -3.538936
RightLeg 90.868773 -0.000000 -0.000000
RightFoot 1.056488 13.671664 8.982894
RightToeBase -5.371868 -0.000000 0.000000
LeftUpLeg -1.074921 -13.582288 -10.379545
LeftLeg -0.528017 -0.000000 0.000000
LeftFoot -6.108872 -8.423321 -3.634428
LeftToeBase 9.816336 -0.000000 -0.000000
Spine -9.767405 -8.200802 -2.762492
RightShoulder -19.427347 -20.516467 -22.125119
RightArm 14.827602 27.879738 51.930430
RightForeArm -7.870451 -0.000000 15.023478
RightHand 7.414562 -0.000000 9.527209
RightHandThumb1 -24.326973 -0.000000 -32.862282
LeftShoulder -19.890360 1.124360 24.714426
LeftArm 36.876326 -16.930226 -60.675228
LeftForeArm 3.940973 -0.000000 46.555259
LeftHand 0.572511 -0.000000 34.100815
LeftHandThumb1 -26.253704 0.000000 33.147579
Head 18.531958 1.706859 -2.566665
1283
root 0.837477 32.831898 -2.196351 8.941860 22.491864 4.698951
RightUpLeg -26.270315 17.844727 -4.328326
RightLeg 90.893976 -0.000000 -0.000000
RightFoot 1.312136 13.349709 9.191746
RightToeBase -4.625906 -0.000000 0.000000
LeftUpLeg -1.168104 -13.719153 -10.354429
LeftLeg -0.492477 -0.000000 0.000000
LeftFoot -6.063953 -8.487167 -3.676201
LeftToeBase 9.817286 -0.000000 -0.000000
Spine -9.806753 -8.332818 -2.727115
RightShoulder -19.497394 -20.546518 -22.077659
RightArm 14.774228 27.915585 51.909705
RightForeArm -7.867509 0.000000 15.006015
RightHand 7.410525 -0.000000 9.528468
RightHandThumb1 -24.326973 -0.000000 -32.862282
LeftShoulder -19.857144 1.065855 24.741105
LeftArm 36.868817 -16.867559 -60.738797
LeftForeArm 4.048581 -0.000000 46.608099
LeftHand 0.364028 -0.000000 34.205343
LeftHandThumb1 -26.253704 0.000000 33.147579
Head 18.505849 1.568710 -2.557846
1284
root 0.839400 32.834713 -2.208066 8.995039 22.666450 4.698766
RightUpLeg -26.622583 19.368987 -5.153487
RightLeg 90.971708 -0.000000 -0.000000
RightFoot 1.339505 13.238353 8.795356
RightToeBase -5.320774 -0.000000 0.000000
LeftUpLeg -1.239548 -13.854227 -10.322520
LeftLeg -0.482424 -0.000000 0.000000
LeftFoot -6.006784 -8.558601 -3.724390
LeftToeBase 9.872230 -0.000000 -0.000000
Spine -9.828214 -8.460114 -2.678687
RightShoulder -19.589728 -20.648085 -22.030548
RightArm 14.777329 27.992308 51.948973
RightForeArm -7.815475 -0.000000 15.032591
RightHand 7.500286 -0.000000 9.682816
RightHandThumb1 -24.326973 -0.000000 -32.862282
LeftShoulder -19.794701 0.994020 24.742694
LeftArm 36.831514 -16.852945 -60.785722
LeftForeArm 3.990599 -0.000000 46.646556
LeftHand 0.523129 -0.000000 34.179979
LeftHandThumb1 -26.253704 0.000000 33.147579
Head 18.471442 1.422514 -2.573330
1285
root 0.840449 32.837178 -2.220548 9.065987 22.819080 4.694831
RightUpLeg -27.055713 20.938118 -6.036113
RightLeg 91.101614 -0.000000 -0.000000
RightFoot 1.172952 13.116268 8.024593
RightToeBase -4.986763 -0.000000 0.000000
LeftUpLeg -1.333812 -13.950565 -10.283193
LeftLeg -0.475459 -0.000000 0.000000
LeftFoot -5.951355 -8.637195 -3.769817
LeftToeBase 9.895391 -0.000000 -0.000000
Spine -9.864352 -8.589951 -2.634644
RightShoulder -19.654749 -20.663641 -21.993266
RightArm 14.723713 28.043813 51.947433
RightForeArm -7.839518 -0.000000 15.000504
RightHand 7.399301 0.000000 9.589447
RightHandThumb1 -24.326973 -0.000000 -32.862282
LeftShoulder -19.750990 0.884344 24.777941
LeftArm 36.726141 -16.794757 -60.793121
LeftForeArm 4.016004 -0.000000 46.731275
LeftHand 0.539806 -0.000000 34.151742
LeftHandThumb1 -26.253704 0.000000 33.147579
Head 18.409406 1.312492 -2.543123
1286
root 0.841186 32.839129 -2.234953 9.127795 22.970724 4.700372
RightUpLeg -27.533372 22.507304 -6.976596
RightLeg 91.251710 -0.000000 -0.000000
RightFoot 1.085847 13.039654 7.709444
RightToeBase -4.300533 -0.000000 0.000000
LeftUpLeg -1.419186 -14.054198 -10.258178
LeftLeg -0.464348 -0.000000 0.000000
LeftFoot -5.896583 -8.692366 -3.771454
LeftToeBase 9.931425 -0.000000 -0.000000
Spine -9.865603 -8.710190 -2.609808
RightShoulder -19.755728 -20.642524 -21.934944
RightArm 14.663684 28.084989 51.917627
RightForeArm -7.900149 -0.000000 14.962227
RightHand 7.708590 -0.000000 9.781670
RightHandThumb1 -24.326973 -0.000000 -32.862282
LeftShoulder -19.699643 0.813747 24.793160
LeftArm 36.675671 -16.768864 -60.797375
LeftForeArm 4.037947 -0.000000 46.819196
LeftHand 0.562625 -0.000000 34.089241
LeftHandThumb1 -26.253704 0.000000 33.147579
Head 18.313622 1.180326 -2.508047
1287
root 0.841544 32.841418 -2.250577 9.189348 23.121809 4.709935
RightUpLeg -28.061073 24.093572 -7.959872
RightLeg 91.429113 -0.000000 -0.000000
RightFoot 0.976807 12.910942 7.472940
RightToeBase -3.610484 -0.000000 0.000000
LeftUpLeg -1.490156 -14.131138 -10.240690
LeftLeg -0.482268 -0.000000 0.000000
LeftFoot -5.848276 -8.743791 -3.670719
LeftToeBase 9.947940 -0.000000 -0.000000
Spine -9.857651 -8.843366 -2.580650
RightShoulder -19.832872 -20.661000 -21.885142
RightArm 14.625214 28.125885 51.926275
RightForeArm -7.892555 0.000000 14.963461
RightHand 7.425475 -0.000000 9.618610
RightHandThumb1 -24.326973 -0.000000 -32.862282
LeftShoulder -19.654515 0.742446 24.799669
LeftArm 36.625780 -16.745472 -60.811576
LeftForeArm 3.929364 -0.000000 46.930143
LeftHand 0.514816 -0.000000 34.129894
LeftHandThumb1 -26.253704 0.000000 33.147579
Head 18.195407 1.100085 -2.481243
1288
root 0.839651 32.843365 -2.268491 9.282232 23.266162 4.731273
RightUpLeg -28.686589 25.672121 -9.014529
RightLeg 91.636976 -0.000000 -0.000000
RightFoot 0.851661 12.742912 7.135281
RightToeBase -2.927940 -0.000000 0.000000
LeftUpLeg -1.600298 -14.144082 -10.235635
LeftLeg -0.500078 -0.000000 0.000000
LeftFoot -5.772191 -8.827737 -3.535463
LeftToeBase 9.864908 -0.000000 -0.000000
Spine -9.873002 -8.975611 -2.571833
RightShoulder -19.904128 -20.686227 -21.830809
RightArm 14.588999 28.159904 51.937417
RightForeArm -7.843585 -0.000000 14.934101
RightHand 7.517400 0.000000 9.636614
RightHandThumb1 -24.326973 -0.000000 -32.862282
LeftShoulder -19.638386 0.793925 24.755228
LeftArm 36.721719 -16.770986 -60.814430
LeftForeArm 4.041002 -0.000000 47.020910
LeftHand 0.366359 -0.000000 34.041902
LeftHandThumb1 -26.253704 0.000000 33.147579
Head 18.070404 1.006226 -2.421571
